<svg id="svg" version="1.1" xmlns="http://www.w3.org/2000/svg" xmlns:xlink="http://www.w3.org/1999/xlink" width="400" height="400" viewBox="0, 0, 400,400"><g id="svgg"><path id="path0" d="M118.516 115.726 C 118.627 116.015,118.924 117.680,119.175 119.426 C 119.427 121.172,119.796 123.500,119.995 124.600 C 120.399 126.832,121.058 130.969,121.589 134.600 C 121.781 135.920,122.223 138.800,122.571 141.000 C 122.918 143.200,123.391 146.337,123.621 147.970 C 123.851 149.604,124.140 151.103,124.262 151.301 C 124.384 151.498,124.641 153.042,124.832 154.730 C 125.173 157.745,125.676 161.047,127.006 169.000 C 127.374 171.200,127.821 174.080,128.000 175.400 C 129.300 184.988,130.761 189.461,132.877 190.333 C 133.055 190.407,133.200 190.639,133.200 190.850 C 133.200 191.061,133.386 191.451,133.614 191.717 C 134.057 192.234,138.310 198.166,140.483 201.297 C 141.208 202.340,142.213 203.690,142.717 204.297 C 143.221 204.904,144.019 206.075,144.491 206.900 C 144.962 207.725,145.494 208.400,145.674 208.400 C 145.853 208.400,146.000 208.599,146.000 208.842 C 146.000 209.238,148.193 212.298,148.836 212.800 C 148.977 212.910,149.219 213.405,149.373 213.900 C 149.528 214.395,149.822 214.800,150.027 214.800 C 150.232 214.800,150.400 215.070,150.400 215.400 C 150.400 215.730,150.535 216.001,150.700 216.003 C 150.865 216.004,151.450 216.679,151.999 217.503 C 152.549 218.326,153.179 219.194,153.399 219.430 C 153.620 219.667,154.331 220.702,154.980 221.730 C 155.629 222.759,156.304 223.600,156.480 223.600 C 156.656 223.600,156.800 223.784,156.800 224.009 C 156.800 224.234,158.240 226.390,160.000 228.800 C 161.760 231.210,163.200 233.366,163.200 233.591 C 163.200 233.816,163.365 234.000,163.567 234.000 C 163.769 234.000,164.347 234.675,164.850 235.500 C 165.354 236.325,165.909 237.060,166.083 237.133 C 166.257 237.207,166.400 237.522,166.400 237.833 C 166.400 238.145,166.535 238.405,166.700 238.411 C 166.865 238.417,167.441 239.137,167.980 240.011 C 168.520 240.885,169.105 241.600,169.280 241.600 C 169.456 241.600,169.600 241.783,169.600 242.006 C 169.600 242.362,172.441 246.552,173.585 247.883 C 173.813 248.149,174.000 248.554,174.000 248.783 C 174.000 249.012,174.147 249.200,174.326 249.200 C 174.506 249.200,175.057 249.920,175.552 250.800 C 176.047 251.680,176.587 252.400,176.752 252.400 C 176.917 252.400,177.435 253.075,177.903 253.900 C 178.370 254.725,179.032 255.760,179.375 256.200 C 180.854 258.103,185.519 264.701,185.937 265.482 C 186.189 265.953,186.627 266.577,186.912 266.869 C 187.196 267.161,188.004 268.259,188.707 269.309 C 189.410 270.358,190.173 271.438,190.404 271.709 C 190.634 271.979,192.076 274.000,193.607 276.200 C 195.139 278.400,196.799 280.720,197.296 281.355 C 197.793 281.990,198.260 282.665,198.333 282.855 C 198.618 283.592,200.036 283.158,200.473 282.200 C 200.723 281.650,201.080 281.200,201.264 281.200 C 201.449 281.200,201.600 280.930,201.600 280.600 C 201.600 280.270,201.738 280.000,201.906 280.000 C 202.074 280.000,202.656 279.280,203.200 278.400 C 203.744 277.520,204.326 276.800,204.494 276.800 C 204.662 276.800,204.800 276.545,204.800 276.233 C 204.800 275.922,204.943 275.607,205.117 275.533 C 205.291 275.460,205.846 274.725,206.350 273.900 C 206.853 273.075,207.431 272.400,207.633 272.400 C 207.835 272.400,208.000 272.212,208.000 271.983 C 208.000 271.754,208.720 270.591,209.600 269.400 C 210.480 268.209,211.200 267.046,211.200 266.817 C 211.200 266.588,211.365 266.400,211.567 266.400 C 211.769 266.400,212.347 265.725,212.850 264.900 C 213.354 264.075,213.909 263.340,214.083 263.267 C 214.257 263.193,214.400 262.970,214.400 262.771 C 214.400 262.572,214.660 262.092,214.977 261.705 C 216.440 259.917,222.000 251.890,222.000 251.565 C 222.000 251.364,222.138 251.200,222.306 251.200 C 222.474 251.200,223.056 250.480,223.600 249.600 C 224.144 248.720,224.726 248.000,224.894 248.000 C 225.062 248.000,225.200 247.812,225.200 247.583 C 225.200 247.354,225.385 246.949,225.611 246.683 C 225.836 246.417,227.992 243.410,230.400 240.000 C 232.808 236.590,234.967 233.579,235.197 233.309 C 235.427 233.038,236.188 231.958,236.887 230.909 C 237.586 229.859,238.271 228.910,238.408 228.800 C 238.546 228.690,238.778 228.330,238.925 228.000 C 239.072 227.670,240.633 225.420,242.394 223.000 C 248.096 215.163,248.537 214.546,250.166 212.121 C 250.935 210.978,252.561 208.692,253.782 207.042 C 255.002 205.393,256.000 203.853,256.000 203.621 C 256.000 203.390,256.138 203.200,256.306 203.200 C 256.474 203.200,257.056 202.480,257.600 201.600 C 258.144 200.720,258.726 200.000,258.894 200.000 C 259.062 200.000,259.200 199.745,259.200 199.433 C 259.200 199.122,259.343 198.807,259.517 198.733 C 259.691 198.660,260.246 197.925,260.750 197.100 C 261.253 196.275,261.831 195.600,262.033 195.600 C 262.235 195.600,262.400 195.416,262.400 195.191 C 262.400 194.966,263.816 192.843,265.547 190.473 C 267.431 187.893,268.791 185.610,268.938 184.782 C 269.243 183.054,270.165 177.288,271.429 169.200 C 271.756 167.110,272.288 163.854,272.612 161.965 C 272.935 160.077,273.200 158.019,273.200 157.394 C 273.200 156.768,273.369 155.704,273.576 155.028 C 273.952 153.799,274.571 150.083,275.215 145.200 C 275.404 143.770,275.846 140.890,276.198 138.800 C 277.468 131.258,278.079 127.350,278.417 124.600 C 278.606 123.060,278.942 120.990,279.163 120.000 C 279.384 119.010,279.567 117.570,279.568 116.800 L 279.571 115.400 278.574 116.600 C 277.742 117.601,273.619 123.904,272.200 126.344 C 271.980 126.722,271.125 127.949,270.300 129.070 C 269.475 130.190,268.800 131.293,268.800 131.520 C 268.800 131.747,268.665 131.993,268.500 132.067 C 268.335 132.140,267.663 133.010,267.006 134.000 C 265.749 135.896,265.670 136.019,263.855 138.966 C 262.720 140.808,260.341 142.400,258.725 142.400 C 258.326 142.400,258.000 142.558,258.000 142.750 C 258.000 142.942,257.415 143.215,256.700 143.356 C 255.985 143.496,253.510 144.316,251.200 145.178 C 248.890 146.039,245.650 147.224,244.000 147.811 C 242.350 148.397,240.433 149.130,239.740 149.439 C 239.046 149.747,238.101 150.000,237.640 150.000 C 237.178 150.000,236.800 150.180,236.800 150.400 C 236.800 150.620,236.384 150.800,235.876 150.800 C 235.369 150.800,234.604 151.064,234.176 151.387 C 233.749 151.710,233.091 151.980,232.714 151.987 C 232.336 151.994,231.346 152.295,230.514 152.655 C 229.681 153.016,228.640 153.444,228.200 153.608 C 225.292 154.686,225.450 154.482,224.915 157.836 C 223.386 167.408,223.383 169.229,224.901 168.506 C 225.395 168.270,227.690 167.492,230.000 166.778 C 232.310 166.063,234.371 165.326,234.580 165.139 C 234.789 164.953,235.428 164.800,236.000 164.800 C 236.572 164.800,237.211 164.642,237.420 164.449 C 237.629 164.255,239.150 163.687,240.800 163.187 C 242.450 162.686,244.070 162.140,244.400 161.974 C 244.730 161.808,246.620 161.191,248.600 160.602 C 250.580 160.014,252.710 159.277,253.332 158.966 C 255.429 157.918,256.000 158.178,256.000 160.184 C 256.000 162.070,254.925 163.600,253.601 163.600 C 253.245 163.600,252.604 163.864,252.176 164.187 C 251.749 164.510,251.134 164.780,250.808 164.787 C 250.279 164.799,247.103 165.890,243.200 167.402 C 242.430 167.700,239.730 168.693,237.200 169.609 C 234.670 170.524,232.033 171.527,231.340 171.837 C 230.646 172.147,229.802 172.400,229.463 172.400 C 229.124 172.400,228.736 172.580,228.600 172.800 C 228.464 173.020,228.048 173.201,227.676 173.202 C 227.304 173.204,226.484 173.474,225.854 173.802 C 225.224 174.131,224.414 174.406,224.054 174.413 C 222.821 174.437,222.091 175.424,221.446 177.943 C 220.871 180.186,220.566 183.600,220.940 183.600 C 221.160 183.600,223.713 182.770,224.600 182.409 C 226.733 181.544,229.096 180.800,229.713 180.800 C 230.091 180.800,230.400 180.636,230.400 180.435 C 230.400 180.234,231.120 179.949,232.000 179.800 C 232.880 179.651,233.600 179.366,233.600 179.165 C 233.600 178.964,233.978 178.800,234.440 178.800 C 234.901 178.800,235.846 178.548,236.540 178.240 C 237.233 177.932,238.160 177.585,238.600 177.470 C 239.040 177.355,240.930 176.686,242.800 175.982 C 244.670 175.279,246.650 174.609,247.200 174.494 C 247.750 174.378,248.555 174.040,248.989 173.742 C 249.423 173.444,250.100 173.200,250.494 173.200 C 250.888 173.200,251.560 172.982,251.987 172.715 C 253.003 172.081,253.091 172.249,252.893 174.457 C 252.701 176.596,251.616 177.310,245.410 179.386 C 244.315 179.752,243.235 180.183,243.010 180.343 C 242.784 180.504,241.610 180.967,240.400 181.373 C 239.190 181.779,238.029 182.267,237.820 182.456 C 237.611 182.645,237.188 182.800,236.880 182.800 C 236.352 182.800,235.895 182.976,232.340 184.553 C 231.536 184.909,230.679 185.200,230.434 185.200 C 230.189 185.200,229.677 185.362,229.295 185.559 C 228.913 185.756,227.790 186.228,226.800 186.607 C 225.810 186.986,224.640 187.449,224.200 187.637 C 223.760 187.824,222.444 188.344,221.277 188.792 C 219.029 189.654,218.195 190.403,205.773 202.700 C 202.385 206.055,199.470 208.800,199.297 208.800 C 198.949 208.800,193.666 203.773,184.763 194.971 C 181.553 191.797,178.664 189.200,178.343 189.200 C 178.022 189.200,177.589 189.050,177.380 188.866 C 177.171 188.682,176.100 188.215,175.000 187.828 C 173.900 187.441,172.460 186.894,171.800 186.613 C 171.140 186.332,169.700 185.779,168.600 185.385 C 167.500 184.990,166.429 184.518,166.220 184.334 C 166.011 184.150,165.462 184.000,165.000 184.000 C 164.538 184.000,163.989 183.848,163.780 183.662 C 163.571 183.476,162.230 182.908,160.800 182.400 C 159.370 181.892,158.029 181.324,157.820 181.138 C 157.611 180.952,157.026 180.800,156.520 180.800 C 156.014 180.800,155.600 180.634,155.600 180.432 C 155.600 180.229,155.021 179.936,154.313 179.781 C 153.605 179.625,152.750 179.363,152.413 179.198 C 150.638 178.328,148.703 177.600,148.170 177.600 C 146.943 177.600,145.200 174.980,145.200 173.135 C 145.200 172.535,145.393 172.363,145.900 172.511 C 147.860 173.083,151.927 174.567,152.862 175.051 C 153.446 175.353,154.290 175.600,154.738 175.600 C 155.186 175.600,155.664 175.780,155.800 176.000 C 155.936 176.220,156.324 176.400,156.663 176.400 C 157.002 176.400,157.846 176.652,158.540 176.960 C 159.233 177.268,160.160 177.615,160.600 177.730 C 161.040 177.845,162.930 178.514,164.800 179.218 C 166.670 179.921,168.650 180.591,169.200 180.706 C 169.750 180.822,170.555 181.160,170.989 181.458 C 171.423 181.756,172.158 182.000,172.622 182.000 C 173.087 182.000,173.599 182.132,173.760 182.293 C 174.323 182.856,177.388 183.572,177.738 183.222 C 177.936 183.024,177.905 182.297,177.666 181.537 C 177.434 180.802,177.124 179.160,176.975 177.889 C 176.695 175.493,175.859 174.400,174.306 174.400 C 173.912 174.400,173.277 174.217,172.895 173.993 C 171.998 173.468,166.899 171.587,165.600 171.303 C 165.050 171.182,164.245 170.840,163.811 170.542 C 163.377 170.244,162.623 170.000,162.135 170.000 C 161.647 170.000,161.136 169.820,161.000 169.600 C 160.864 169.380,160.448 169.199,160.076 169.198 C 159.704 169.196,158.884 168.926,158.254 168.598 C 157.624 168.269,156.814 167.994,156.454 167.987 C 156.094 167.980,155.451 167.710,155.024 167.387 C 154.596 167.064,153.842 166.800,153.347 166.800 C 152.852 166.800,152.336 166.620,152.200 166.400 C 152.064 166.180,151.676 166.000,151.337 166.000 C 150.998 166.000,150.154 165.747,149.460 165.439 C 148.767 165.130,147.030 164.447,145.600 163.921 C 143.469 163.137,142.976 162.787,142.866 161.982 C 142.793 161.442,142.568 160.829,142.366 160.620 C 140.488 158.670,142.454 158.010,146.000 159.400 C 147.403 159.950,148.805 160.400,149.115 160.400 C 149.425 160.400,150.246 160.646,150.940 160.947 C 151.633 161.248,153.280 161.811,154.600 162.197 C 155.920 162.583,157.313 163.057,157.695 163.250 C 158.077 163.442,158.589 163.600,158.834 163.600 C 159.079 163.600,159.846 163.850,160.540 164.155 C 161.233 164.461,163.690 165.303,166.000 166.028 C 168.310 166.752,170.470 167.470,170.800 167.623 C 171.600 167.995,174.177 168.800,174.565 168.800 C 175.097 168.800,173.945 159.037,173.061 156.055 C 172.506 154.180,172.840 154.371,166.000 152.020 C 165.450 151.831,163.470 151.106,161.600 150.408 C 159.730 149.710,157.840 149.045,157.400 148.930 C 156.960 148.815,156.033 148.468,155.340 148.160 C 154.646 147.852,153.802 147.600,153.463 147.600 C 153.124 147.600,152.736 147.420,152.600 147.200 C 152.464 146.980,152.048 146.799,151.676 146.798 C 151.304 146.796,150.484 146.526,149.854 146.198 C 149.224 145.869,148.405 145.600,148.034 145.600 C 147.663 145.600,147.189 145.449,146.980 145.264 C 146.771 145.078,145.340 144.518,143.800 144.019 C 142.260 143.520,140.829 142.951,140.620 142.756 C 140.411 142.560,139.963 142.400,139.624 142.400 C 138.227 142.400,135.633 140.985,135.411 140.103 C 135.287 139.606,135.008 139.200,134.792 139.200 C 134.577 139.200,134.400 138.930,134.400 138.600 C 134.400 138.270,134.232 138.000,134.027 138.000 C 133.822 138.000,133.528 137.595,133.373 137.100 C 133.219 136.605,132.967 136.110,132.814 136.000 C 132.661 135.890,131.664 134.450,130.600 132.800 C 129.536 131.150,128.560 129.710,128.432 129.600 C 128.038 129.261,127.189 127.837,126.942 127.100 C 126.812 126.715,126.548 126.400,126.353 126.400 C 126.159 126.400,126.000 126.243,126.000 126.050 C 126.000 125.651,120.508 117.276,119.719 116.471 C 119.433 116.181,119.200 115.776,119.200 115.571 C 119.200 115.367,119.001 115.200,118.757 115.200 C 118.514 115.200,118.405 115.437,118.516 115.726 M170.971 120.668 C 171.112 121.035,171.416 122.697,171.648 124.362 C 171.879 126.026,172.185 127.570,172.328 127.794 C 172.470 128.017,172.701 129.280,172.840 130.600 C 172.979 131.920,173.305 134.080,173.564 135.400 C 173.824 136.720,174.200 138.700,174.400 139.800 C 174.600 140.900,174.975 142.880,175.233 144.200 C 175.492 145.520,175.837 147.590,176.000 148.800 C 176.163 150.010,176.508 152.080,176.767 153.400 C 177.025 154.720,177.400 156.700,177.600 157.800 C 177.800 158.900,178.175 160.880,178.433 162.200 C 178.692 163.520,179.053 165.590,179.237 166.800 C 179.421 168.010,179.848 170.530,180.186 172.400 C 180.524 174.270,180.976 176.880,181.192 178.200 C 181.407 179.520,181.767 181.229,181.992 181.997 C 182.216 182.766,182.400 184.010,182.400 184.763 C 182.400 187.085,183.570 188.874,187.263 192.200 C 189.217 193.960,192.608 197.155,194.799 199.300 C 196.991 201.445,198.941 203.200,199.134 203.200 C 199.499 203.200,201.056 201.752,209.933 193.156 L 215.265 187.991 216.250 182.496 C 216.791 179.473,217.390 176.010,217.581 174.800 C 217.772 173.590,218.214 171.025,218.564 169.100 C 218.914 167.175,219.486 164.025,219.836 162.100 C 220.186 160.175,220.627 157.610,220.817 156.400 C 221.007 155.190,221.347 153.480,221.572 152.600 C 221.797 151.720,221.985 150.355,221.990 149.567 C 221.996 148.778,222.135 147.999,222.300 147.836 C 222.465 147.672,222.821 146.067,223.090 144.269 C 224.111 137.468,224.328 136.183,224.559 135.600 C 224.689 135.270,224.967 133.920,225.178 132.600 C 225.388 131.280,225.855 128.580,226.215 126.600 C 227.531 119.375,227.432 118.588,225.580 121.589 C 225.041 122.463,224.465 123.183,224.300 123.189 C 224.135 123.195,224.000 123.470,224.000 123.800 C 224.000 124.130,223.859 124.400,223.686 124.400 C 223.514 124.400,223.079 124.895,222.721 125.500 C 222.363 126.105,221.603 127.140,221.032 127.800 C 220.462 128.460,219.894 129.315,219.771 129.700 C 219.647 130.085,219.378 130.400,219.173 130.400 C 218.968 130.400,218.800 130.670,218.800 131.000 C 218.800 131.330,218.625 131.600,218.410 131.600 C 218.196 131.600,217.764 132.095,217.451 132.700 C 217.138 133.305,216.326 134.430,215.647 135.200 C 214.968 135.970,214.407 136.780,214.400 137.000 C 214.393 137.220,213.832 138.030,213.153 138.800 C 212.474 139.570,211.662 140.695,211.349 141.300 C 211.036 141.905,210.604 142.400,210.390 142.400 C 210.175 142.400,210.000 142.670,210.000 143.000 C 210.000 143.330,209.861 143.600,209.691 143.600 C 209.521 143.600,209.065 144.185,208.678 144.900 C 208.291 145.615,207.462 146.785,206.835 147.500 L 205.695 148.800 198.947 148.790 L 192.200 148.779 190.800 146.690 C 190.030 145.540,189.085 144.251,188.700 143.825 C 188.315 143.398,188.000 142.931,188.000 142.787 C 188.000 142.642,187.542 142.001,186.983 141.362 C 186.424 140.723,185.581 139.525,185.109 138.700 C 184.638 137.875,184.106 137.200,183.926 137.200 C 183.747 137.200,183.600 136.930,183.600 136.600 C 183.600 136.270,183.432 136.000,183.226 136.000 C 183.020 136.000,182.447 135.280,181.952 134.400 C 181.457 133.520,180.906 132.800,180.726 132.800 C 180.547 132.800,180.400 132.612,180.400 132.383 C 180.400 131.966,180.016 131.421,178.700 129.971 C 178.315 129.547,178.000 129.035,178.000 128.833 C 178.000 128.632,177.847 128.407,177.660 128.333 C 177.473 128.260,176.837 127.480,176.248 126.600 C 172.575 121.114,170.055 118.282,170.971 120.668 M205.236 162.000 C 205.146 162.330,204.989 163.230,204.889 164.000 C 204.788 164.770,204.554 165.589,204.370 165.820 C 204.186 166.051,203.913 167.041,203.763 168.020 C 203.613 168.999,203.352 169.980,203.183 170.200 C 203.013 170.420,202.747 171.457,202.591 172.505 C 202.435 173.553,202.148 174.508,201.954 174.629 C 201.759 174.749,201.600 175.208,201.600 175.648 C 201.600 176.089,201.347 177.294,201.039 178.325 C 200.730 179.356,200.213 181.100,199.890 182.200 C 199.224 184.470,198.730 184.633,198.314 182.717 C 197.561 179.253,196.974 176.964,196.745 176.600 C 196.606 176.380,196.361 175.390,196.201 174.400 C 196.041 173.410,195.773 172.420,195.605 172.200 C 195.438 171.980,195.201 171.260,195.078 170.600 C 194.956 169.940,194.552 168.320,194.181 167.000 C 193.809 165.680,193.418 163.830,193.311 162.889 L 193.118 161.179 199.259 161.289 C 204.489 161.384,205.376 161.489,205.236 162.000 M148.000 193.333 C 149.424 193.864,150.166 194.180,153.911 195.856 C 155.072 196.375,156.272 196.800,156.579 196.800 C 156.885 196.800,157.645 197.059,158.268 197.376 C 158.890 197.692,160.120 198.244,161.000 198.603 C 161.880 198.961,162.960 199.400,163.400 199.579 C 163.840 199.758,165.010 200.217,166.000 200.600 C 166.990 200.983,168.250 201.471,168.800 201.685 C 169.350 201.899,170.310 202.327,170.932 202.637 C 171.555 202.947,172.400 203.200,172.809 203.200 C 173.218 203.200,173.654 203.364,173.778 203.565 C 173.902 203.765,175.173 204.348,176.602 204.861 C 178.031 205.374,179.200 205.929,179.200 206.096 C 179.200 206.263,179.639 206.400,180.176 206.400 C 180.713 206.400,181.255 206.566,181.381 206.769 C 181.506 206.972,182.186 207.265,182.891 207.420 C 183.597 207.575,184.450 207.850,184.787 208.031 C 185.467 208.397,187.227 209.135,190.099 210.258 C 191.484 210.800,191.997 211.216,191.995 211.800 C 191.993 212.882,183.912 229.000,183.372 229.000 C 182.794 229.000,176.332 223.003,166.990 213.800 C 162.747 209.620,156.289 203.335,152.638 199.833 C 145.153 192.652,144.784 192.136,148.000 193.333 M251.942 193.837 C 251.424 194.407,250.124 195.712,249.054 196.737 C 247.984 197.762,245.537 200.130,243.617 202.000 C 241.696 203.870,236.930 208.460,233.026 212.200 C 229.121 215.940,223.727 221.160,221.040 223.800 C 214.345 230.377,215.047 229.990,213.938 227.718 C 213.422 226.663,212.911 225.710,212.800 225.600 C 212.690 225.490,212.285 224.725,211.900 223.900 C 211.515 223.075,210.885 221.725,210.500 220.900 C 210.115 220.075,209.665 219.340,209.500 219.267 C 209.335 219.193,209.200 218.965,209.200 218.758 C 209.200 218.552,208.453 216.848,207.540 214.971 C 205.740 211.269,205.735 211.294,208.400 210.226 C 209.390 209.829,210.560 209.356,211.000 209.175 C 216.097 207.080,217.831 206.400,218.081 206.400 C 218.245 206.400,219.328 205.974,220.489 205.454 C 221.650 204.933,223.410 204.192,224.400 203.806 C 225.390 203.420,226.560 202.956,227.000 202.775 C 232.097 200.680,233.831 200.000,234.081 200.000 C 234.245 200.000,235.328 199.574,236.489 199.054 C 237.650 198.533,239.410 197.792,240.400 197.406 C 241.390 197.020,242.560 196.555,243.000 196.373 C 243.440 196.191,245.240 195.481,247.000 194.794 C 248.760 194.108,250.470 193.389,250.800 193.197 C 252.253 192.350,252.942 192.736,251.942 193.837 M263.399 201.398 C 261.199 204.453,259.062 207.503,258.650 208.176 C 258.237 208.849,257.769 209.490,257.609 209.600 C 257.450 209.710,256.859 210.536,256.295 211.436 C 255.732 212.336,255.030 213.334,254.735 213.653 C 254.441 213.972,254.020 214.532,253.800 214.897 C 253.288 215.746,248.598 222.346,247.759 223.400 C 247.408 223.840,246.644 224.920,246.061 225.800 C 245.477 226.680,244.865 227.460,244.700 227.533 C 244.535 227.607,244.400 227.842,244.400 228.057 C 244.400 228.486,241.980 231.720,241.500 231.933 C 241.335 232.007,241.200 232.223,241.200 232.413 C 241.200 232.714,235.156 241.351,234.014 242.683 C 233.786 242.949,233.600 243.271,233.600 243.400 C 233.600 243.529,233.418 243.851,233.195 244.117 C 232.971 244.383,230.994 247.120,228.800 250.200 C 226.606 253.280,224.629 256.017,224.405 256.283 C 224.182 256.549,224.000 256.954,224.000 257.183 C 224.000 257.412,223.862 257.600,223.694 257.600 C 223.526 257.600,222.944 258.320,222.400 259.200 C 221.856 260.080,221.274 260.800,221.106 260.800 C 220.938 260.800,220.800 261.055,220.800 261.367 C 220.800 261.678,220.657 261.993,220.483 262.067 C 220.309 262.140,219.754 262.875,219.250 263.700 C 218.747 264.525,218.169 265.200,217.967 265.200 C 217.765 265.200,217.600 265.382,217.600 265.604 C 217.600 265.940,212.940 272.686,211.604 274.283 C 211.382 274.549,211.200 274.954,211.200 275.183 C 211.200 275.412,211.056 275.600,210.880 275.600 C 210.705 275.600,210.120 276.315,209.580 277.189 C 209.041 278.063,208.465 278.783,208.300 278.789 C 208.135 278.795,208.000 279.070,208.000 279.400 C 208.000 279.730,207.841 280.000,207.647 280.000 C 207.452 280.000,207.195 280.374,207.076 280.832 C 206.912 281.458,207.008 281.606,207.466 281.430 C 207.801 281.302,208.508 281.088,209.037 280.955 C 209.567 280.822,210.000 280.553,210.000 280.357 C 210.000 280.160,210.349 280.000,210.776 280.000 C 211.203 280.000,211.652 279.840,211.773 279.644 C 211.894 279.449,212.487 279.164,213.092 279.013 C 213.697 278.861,214.284 278.616,214.396 278.468 C 214.800 277.938,217.281 276.800,218.032 276.800 C 218.455 276.800,218.800 276.620,218.800 276.400 C 218.800 276.180,219.006 276.000,219.258 276.000 C 219.510 276.000,220.995 275.392,222.558 274.648 C 224.121 273.905,226.795 272.645,228.500 271.848 C 230.205 271.052,232.905 269.790,234.500 269.044 C 239.439 266.736,241.141 266.000,241.545 266.000 C 241.758 266.000,241.993 265.865,242.067 265.700 C 242.288 265.203,244.810 264.000,245.632 264.000 C 246.055 264.000,246.400 263.820,246.400 263.600 C 246.400 263.380,246.604 263.200,246.852 263.200 C 247.101 263.200,249.126 262.324,251.352 261.254 C 253.579 260.183,256.233 258.918,257.251 258.442 C 259.046 257.602,259.110 257.511,259.319 255.488 C 259.438 254.340,259.737 252.140,259.983 250.600 C 260.229 249.060,260.600 246.630,260.806 245.200 C 261.013 243.770,261.378 241.250,261.619 239.600 C 261.859 237.950,262.191 235.150,262.357 233.377 C 262.522 231.604,262.779 229.957,262.928 229.716 C 263.077 229.476,263.377 227.686,263.595 225.740 C 263.813 223.793,264.276 220.220,264.624 217.800 C 264.972 215.380,265.335 212.770,265.430 212.000 C 266.005 207.345,266.915 201.116,267.273 199.380 C 268.114 195.301,267.593 195.572,263.399 201.398 M130.640 196.735 C 130.482 196.991,130.488 197.419,130.654 197.687 C 130.820 197.955,131.085 199.530,131.244 201.187 C 131.403 202.844,131.826 206.180,132.184 208.600 C 132.541 211.020,133.006 214.530,133.217 216.400 C 133.428 218.270,133.715 220.070,133.854 220.400 C 133.994 220.730,134.240 222.350,134.401 224.000 C 134.739 227.458,135.476 232.901,136.000 235.800 C 136.451 238.299,137.213 243.719,137.629 247.400 C 138.885 258.501,138.281 257.341,144.200 260.020 C 145.740 260.717,148.279 261.898,149.842 262.644 C 151.405 263.390,152.890 264.000,153.142 264.000 C 153.394 264.000,153.600 264.180,153.600 264.400 C 153.600 264.620,153.811 264.800,154.068 264.800 C 154.326 264.800,155.721 265.360,157.168 266.045 C 169.022 271.652,173.215 273.600,173.431 273.600 C 173.533 273.600,175.187 274.339,177.108 275.241 C 190.016 281.308,190.652 281.600,190.944 281.600 C 191.386 281.600,191.223 280.881,190.653 280.310 C 190.352 280.009,189.980 279.366,189.826 278.881 C 189.672 278.397,189.378 278.000,189.173 278.000 C 188.968 278.000,188.800 277.730,188.800 277.400 C 188.800 277.070,188.632 276.800,188.426 276.800 C 188.220 276.800,187.647 276.080,187.152 275.200 C 186.657 274.320,186.106 273.600,185.926 273.600 C 185.747 273.600,185.600 273.330,185.600 273.000 C 185.600 272.670,185.465 272.395,185.300 272.389 C 185.135 272.383,184.559 271.663,184.020 270.789 C 183.480 269.915,182.895 269.200,182.720 269.200 C 182.544 269.200,182.400 269.016,182.400 268.791 C 182.400 268.566,180.960 266.410,179.200 264.000 C 177.440 261.590,176.000 259.434,176.000 259.209 C 176.000 258.984,175.835 258.800,175.633 258.800 C 175.431 258.800,174.853 258.125,174.350 257.300 C 173.846 256.475,173.291 255.740,173.117 255.667 C 172.943 255.593,172.800 255.278,172.800 254.967 C 172.800 254.655,172.656 254.400,172.480 254.400 C 172.305 254.400,171.720 253.685,171.180 252.811 C 170.641 251.937,170.065 251.217,169.900 251.211 C 169.735 251.205,169.600 250.945,169.600 250.633 C 169.600 250.322,169.457 250.007,169.283 249.933 C 169.109 249.860,168.554 249.125,168.050 248.300 C 167.547 247.475,166.969 246.800,166.767 246.800 C 166.565 246.800,166.400 246.612,166.400 246.383 C 166.400 246.154,165.680 244.991,164.800 243.800 C 163.920 242.609,163.200 241.446,163.200 241.217 C 163.200 240.988,163.055 240.800,162.877 240.800 C 162.485 240.800,160.000 237.335,160.000 236.788 C 160.000 236.575,159.856 236.400,159.680 236.400 C 159.505 236.400,158.920 235.685,158.380 234.811 C 157.841 233.937,157.265 233.217,157.100 233.211 C 156.935 233.205,156.800 233.012,156.800 232.783 C 156.800 232.554,156.619 232.149,156.398 231.883 C 154.994 230.193,149.200 221.907,149.200 221.588 C 149.200 221.375,149.065 221.198,148.900 221.195 C 148.735 221.192,147.980 220.202,147.222 218.995 C 146.464 217.788,145.699 216.800,145.522 216.800 C 145.345 216.800,145.200 216.630,145.200 216.421 C 145.200 216.213,143.220 213.331,140.800 210.018 C 138.380 206.704,136.400 203.815,136.400 203.597 C 136.400 203.379,136.253 203.200,136.074 203.200 C 135.894 203.200,135.343 202.480,134.848 201.600 C 134.353 200.720,133.780 200.000,133.574 200.000 C 133.368 200.000,133.200 199.812,133.200 199.583 C 133.200 199.354,133.020 198.949,132.800 198.683 C 132.580 198.417,132.068 197.766,131.664 197.235 C 131.165 196.581,130.835 196.420,130.640 196.735 " stroke="none" fill="#f80505" fill-rule="evenodd"></path><path id="path1" d="M185.600 0.254 C 136.454 4.539,94.099 23.676,60.052 56.978 C 4.851 110.970,-14.357 191.879,10.672 264.969 C 46.401 369.300,160.507 425.101,264.969 389.328 C 369.300 353.599,425.101 239.493,389.328 135.031 C 364.249 61.797,300.385 10.629,222.000 0.965 C 216.861 0.332,190.596 -0.182,185.600 0.254 M119.200 115.571 C 119.200 115.776,119.433 116.181,119.719 116.471 C 120.508 117.276,126.000 125.651,126.000 126.050 C 126.000 126.243,126.159 126.400,126.353 126.400 C 126.548 126.400,126.812 126.715,126.942 127.100 C 127.189 127.837,128.038 129.261,128.432 129.600 C 128.560 129.710,129.536 131.150,130.600 132.800 C 131.664 134.450,132.661 135.890,132.814 136.000 C 132.967 136.110,133.219 136.605,133.373 137.100 C 133.528 137.595,133.822 138.000,134.027 138.000 C 134.232 138.000,134.400 138.270,134.400 138.600 C 134.400 138.930,134.577 139.200,134.792 139.200 C 135.008 139.200,135.287 139.606,135.411 140.103 C 135.633 140.985,138.227 142.400,139.624 142.400 C 139.963 142.400,140.411 142.560,140.620 142.756 C 140.829 142.951,142.260 143.520,143.800 144.019 C 145.340 144.518,146.771 145.078,146.980 145.264 C 147.189 145.449,147.663 145.600,148.034 145.600 C 148.405 145.600,149.224 145.869,149.854 146.198 C 150.484 146.526,151.304 146.796,151.676 146.798 C 152.048 146.799,152.464 146.980,152.600 147.200 C 152.736 147.420,153.124 147.600,153.463 147.600 C 153.802 147.600,154.646 147.852,155.340 148.160 C 156.033 148.468,156.960 148.815,157.400 148.930 C 157.840 149.045,159.730 149.710,161.600 150.408 C 163.470 151.106,165.450 151.831,166.000 152.020 C 172.840 154.371,172.506 154.180,173.061 156.055 C 173.945 159.037,175.097 168.800,174.565 168.800 C 174.177 168.800,171.600 167.995,170.800 167.623 C 170.470 167.470,168.310 166.752,166.000 166.028 C 163.690 165.303,161.233 164.461,160.540 164.155 C 159.846 163.850,159.079 163.600,158.834 163.600 C 158.589 163.600,158.077 163.442,157.695 163.250 C 157.313 163.057,155.920 162.583,154.600 162.197 C 153.280 161.811,151.633 161.248,150.940 160.947 C 150.246 160.646,149.425 160.400,149.115 160.400 C 148.805 160.400,147.403 159.950,146.000 159.400 C 142.454 158.010,140.488 158.670,142.366 160.620 C 142.568 160.829,142.793 161.442,142.866 161.982 C 142.976 162.787,143.469 163.137,145.600 163.921 C 147.030 164.447,148.767 165.130,149.460 165.439 C 150.154 165.747,150.998 166.000,151.337 166.000 C 151.676 166.000,152.064 166.180,152.200 166.400 C 152.336 166.620,152.852 166.800,153.347 166.800 C 153.842 166.800,154.596 167.064,155.024 167.387 C 155.451 167.710,156.094 167.980,156.454 167.987 C 156.814 167.994,157.624 168.269,158.254 168.598 C 158.884 168.926,159.704 169.196,160.076 169.198 C 160.448 169.199,160.864 169.380,161.000 169.600 C 161.136 169.820,161.647 170.000,162.135 170.000 C 162.623 170.000,163.377 170.244,163.811 170.542 C 164.245 170.840,165.050 171.182,165.600 171.303 C 166.899 171.587,171.998 173.468,172.895 173.993 C 173.277 174.217,173.912 174.400,174.306 174.400 C 175.859 174.400,176.695 175.493,176.975 177.889 C 177.124 179.160,177.434 180.802,177.666 181.537 C 177.905 182.297,177.936 183.024,177.738 183.222 C 177.388 183.572,174.323 182.856,173.760 182.293 C 173.599 182.132,173.087 182.000,172.622 182.000 C 172.158 182.000,171.423 181.756,170.989 181.458 C 170.555 181.160,169.750 180.822,169.200 180.706 C 168.650 180.591,166.670 179.921,164.800 179.218 C 162.930 178.514,161.040 177.845,160.600 177.730 C 160.160 177.615,159.233 177.268,158.540 176.960 C 157.846 176.652,157.002 176.400,156.663 176.400 C 156.324 176.400,155.936 176.220,155.800 176.000 C 155.664 175.780,155.186 175.600,154.738 175.600 C 154.290 175.600,153.446 175.353,152.862 175.051 C 151.927 174.567,147.860 173.083,145.900 172.511 C 145.393 172.363,145.200 172.535,145.200 173.135 C 145.200 174.980,146.943 177.600,148.170 177.600 C 148.703 177.600,150.638 178.328,152.413 179.198 C 152.750 179.363,153.605 179.625,154.313 179.781 C 155.021 179.936,155.600 180.229,155.600 180.432 C 155.600 180.634,156.014 180.800,156.520 180.800 C 157.026 180.800,157.611 180.952,157.820 181.138 C 158.029 181.324,159.370 181.892,160.800 182.400 C 162.230 182.908,163.571 183.476,163.780 183.662 C 163.989 183.848,164.538 184.000,165.000 184.000 C 165.462 184.000,166.011 184.150,166.220 184.334 C 166.429 184.518,167.500 184.990,168.600 185.385 C 169.700 185.779,171.140 186.332,171.800 186.613 C 172.460 186.894,173.900 187.441,175.000 187.828 C 176.100 188.215,177.171 188.682,177.380 188.866 C 177.589 189.050,178.022 189.200,178.343 189.200 C 178.664 189.200,181.553 191.797,184.763 194.971 C 193.666 203.773,198.949 208.800,199.297 208.800 C 199.470 208.800,202.385 206.055,205.773 202.700 C 218.195 190.403,219.029 189.654,221.277 188.792 C 222.444 188.344,223.760 187.824,224.200 187.637 C 224.640 187.449,225.810 186.986,226.800 186.607 C 227.790 186.228,228.913 185.756,229.295 185.559 C 229.677 185.362,230.189 185.200,230.434 185.200 C 230.679 185.200,231.536 184.909,232.340 184.553 C 235.895 182.976,236.352 182.800,236.880 182.800 C 237.188 182.800,237.611 182.645,237.820 182.456 C 238.029 182.267,239.190 181.779,240.400 181.373 C 241.610 180.967,242.784 180.504,243.010 180.343 C 243.235 180.183,244.315 179.752,245.410 179.386 C 251.616 177.310,252.701 176.596,252.893 174.457 C 253.091 172.249,253.003 172.081,251.987 172.715 C 251.560 172.982,250.888 173.200,250.494 173.200 C 250.100 173.200,249.423 173.444,248.989 173.742 C 248.555 174.040,247.750 174.378,247.200 174.494 C 246.650 174.609,244.670 175.279,242.800 175.982 C 240.930 176.686,239.040 177.355,238.600 177.470 C 238.160 177.585,237.233 177.932,236.540 178.240 C 235.846 178.548,234.901 178.800,234.440 178.800 C 233.978 178.800,233.600 178.964,233.600 179.165 C 233.600 179.366,232.880 179.651,232.000 179.800 C 231.120 179.949,230.400 180.234,230.400 180.435 C 230.400 180.636,230.091 180.800,229.713 180.800 C 229.096 180.800,226.733 181.544,224.600 182.409 C 223.713 182.770,221.160 183.600,220.940 183.600 C 220.566 183.600,220.871 180.186,221.446 177.943 C 222.091 175.424,222.821 174.437,224.054 174.413 C 224.414 174.406,225.224 174.131,225.854 173.802 C 226.484 173.474,227.304 173.204,227.676 173.202 C 228.048 173.201,228.464 173.020,228.600 172.800 C 228.736 172.580,229.124 172.400,229.463 172.400 C 229.802 172.400,230.646 172.147,231.340 171.837 C 232.033 171.527,234.670 170.524,237.200 169.609 C 239.730 168.693,242.430 167.700,243.200 167.402 C 247.103 165.890,250.279 164.799,250.808 164.787 C 251.134 164.780,251.749 164.510,252.176 164.187 C 252.604 163.864,253.245 163.600,253.601 163.600 C 254.925 163.600,256.000 162.070,256.000 160.184 C 256.000 158.178,255.429 157.918,253.332 158.966 C 252.710 159.277,250.580 160.014,248.600 160.602 C 246.620 161.191,244.730 161.808,244.400 161.974 C 244.070 162.140,242.450 162.686,240.800 163.187 C 239.150 163.687,237.629 164.255,237.420 164.449 C 237.211 164.642,236.572 164.800,236.000 164.800 C 235.428 164.800,234.789 164.953,234.580 165.139 C 234.371 165.326,232.310 166.063,230.000 166.778 C 227.690 167.492,225.395 168.270,224.901 168.506 C 223.383 169.229,223.386 167.408,224.915 157.836 C 225.450 154.482,225.292 154.686,228.200 153.608 C 228.640 153.444,229.681 153.016,230.514 152.655 C 231.346 152.295,232.336 151.994,232.714 151.987 C 233.091 151.980,233.749 151.710,234.176 151.387 C 234.604 151.064,235.369 150.800,235.876 150.800 C 236.384 150.800,236.800 150.620,236.800 150.400 C 236.800 150.180,237.178 150.000,237.640 150.000 C 238.101 150.000,239.046 149.747,239.740 149.439 C 240.433 149.130,242.350 148.397,244.000 147.811 C 245.650 147.224,248.890 146.039,251.200 145.178 C 253.510 144.316,255.985 143.496,256.700 143.356 C 257.415 143.215,258.000 142.942,258.000 142.750 C 258.000 142.558,258.326 142.400,258.725 142.400 C 260.341 142.400,262.720 140.808,263.855 138.966 C 265.670 136.019,265.749 135.896,267.006 134.000 C 267.663 133.010,268.335 132.140,268.500 132.067 C 268.665 131.993,268.800 131.747,268.800 131.520 C 268.800 131.293,269.475 130.190,270.300 129.070 C 271.125 127.949,271.980 126.722,272.200 126.344 C 273.619 123.904,277.742 117.601,278.574 116.600 L 279.571 115.400 279.568 116.800 C 279.567 117.570,279.384 119.010,279.163 120.000 C 278.942 120.990,278.606 123.060,278.417 124.600 C 278.079 127.350,277.468 131.258,276.198 138.800 C 275.846 140.890,275.404 143.770,275.215 145.200 C 274.571 150.083,273.952 153.799,273.576 155.028 C 273.369 155.704,273.200 156.768,273.200 157.394 C 273.200 158.019,272.935 160.077,272.612 161.965 C 272.288 163.854,271.756 167.110,271.429 169.200 C 270.165 177.288,269.243 183.054,268.938 184.782 C 268.791 185.610,267.431 187.893,265.547 190.473 C 263.816 192.843,262.400 194.966,262.400 195.191 C 262.400 195.416,262.235 195.600,262.033 195.600 C 261.831 195.600,261.253 196.275,260.750 197.100 C 260.246 197.925,259.691 198.660,259.517 198.733 C 259.343 198.807,259.200 199.122,259.200 199.433 C 259.200 199.745,259.062 200.000,258.894 200.000 C 258.726 200.000,258.144 200.720,257.600 201.600 C 257.056 202.480,256.474 203.200,256.306 203.200 C 256.138 203.200,256.000 203.390,256.000 203.621 C 256.000 203.853,255.002 205.393,253.782 207.042 C 252.561 208.692,250.935 210.978,250.166 212.121 C 248.537 214.546,248.096 215.163,242.394 223.000 C 240.633 225.420,239.072 227.670,238.925 228.000 C 238.778 228.330,238.546 228.690,238.408 228.800 C 238.271 228.910,237.586 229.859,236.887 230.909 C 236.188 231.958,235.427 233.038,235.197 233.309 C 234.967 233.579,232.808 236.590,230.400 240.000 C 227.992 243.410,225.836 246.417,225.611 246.683 C 225.385 246.949,225.200 247.354,225.200 247.583 C 225.200 247.812,225.062 248.000,224.894 248.000 C 224.726 248.000,224.144 248.720,223.600 249.600 C 223.056 250.480,222.474 251.200,222.306 251.200 C 222.138 251.200,222.000 251.364,222.000 251.565 C 222.000 251.890,216.440 259.917,214.977 261.705 C 214.660 262.092,214.400 262.572,214.400 262.771 C 214.400 262.970,214.257 263.193,214.083 263.267 C 213.909 263.340,213.354 264.075,212.850 264.900 C 212.347 265.725,211.769 266.400,211.567 266.400 C 211.365 266.400,211.200 266.588,211.200 266.817 C 211.200 267.046,210.480 268.209,209.600 269.400 C 208.720 270.591,208.000 271.754,208.000 271.983 C 208.000 272.212,207.835 272.400,207.633 272.400 C 207.431 272.400,206.853 273.075,206.350 273.900 C 205.846 274.725,205.291 275.460,205.117 275.533 C 204.943 275.607,204.800 275.922,204.800 276.233 C 204.800 276.545,204.662 276.800,204.494 276.800 C 204.326 276.800,203.744 277.520,203.200 278.400 C 202.656 279.280,202.074 280.000,201.906 280.000 C 201.738 280.000,201.600 280.270,201.600 280.600 C 201.600 280.930,201.449 281.200,201.264 281.200 C 201.080 281.200,200.723 281.650,200.473 282.200 C 200.036 283.158,198.618 283.592,198.333 282.855 C 198.260 282.665,197.793 281.990,197.296 281.355 C 196.799 280.720,195.139 278.400,193.607 276.200 C 192.076 274.000,190.634 271.979,190.404 271.709 C 190.173 271.438,189.410 270.358,188.707 269.309 C 188.004 268.259,187.196 267.161,186.912 266.869 C 186.627 266.577,186.189 265.953,185.937 265.482 C 185.519 264.701,180.854 258.103,179.375 256.200 C 179.032 255.760,178.370 254.725,177.903 253.900 C 177.435 253.075,176.917 252.400,176.752 252.400 C 176.587 252.400,176.047 251.680,175.552 250.800 C 175.057 249.920,174.506 249.200,174.326 249.200 C 174.147 249.200,174.000 249.012,174.000 248.783 C 174.000 248.554,173.813 248.149,173.585 247.883 C 172.441 246.552,169.600 242.362,169.600 242.006 C 169.600 241.783,169.456 241.600,169.280 241.600 C 169.105 241.600,168.520 240.885,167.980 240.011 C 167.441 239.137,166.865 238.417,166.700 238.411 C 166.535 238.405,166.400 238.145,166.400 237.833 C 166.400 237.522,166.257 237.207,166.083 237.133 C 165.909 237.060,165.354 236.325,164.850 235.500 C 164.347 234.675,163.769 234.000,163.567 234.000 C 163.365 234.000,163.200 233.816,163.200 233.591 C 163.200 233.366,161.760 231.210,160.000 228.800 C 158.240 226.390,156.800 224.234,156.800 224.009 C 156.800 223.784,156.656 223.600,156.480 223.600 C 156.304 223.600,155.629 222.759,154.980 221.730 C 154.331 220.702,153.620 219.667,153.399 219.430 C 153.179 219.194,152.549 218.326,151.999 217.503 C 151.450 216.679,150.865 216.004,150.700 216.003 C 150.535 216.001,150.400 215.730,150.400 215.400 C 150.400 215.070,150.232 214.800,150.027 214.800 C 149.822 214.800,149.528 214.395,149.373 213.900 C 149.219 213.405,148.977 212.910,148.836 212.800 C 148.193 212.298,146.000 209.238,146.000 208.842 C 146.000 208.599,145.853 208.400,145.674 208.400 C 145.494 208.400,144.962 207.725,144.491 206.900 C 144.019 206.075,143.221 204.904,142.717 204.297 C 142.213 203.690,141.208 202.340,140.483 201.297 C 138.310 198.166,134.057 192.234,133.614 191.717 C 133.386 191.451,133.200 191.061,133.200 190.850 C 133.200 190.639,133.055 190.407,132.877 190.333 C 130.761 189.461,129.300 184.988,128.000 175.400 C 127.821 174.080,127.374 171.200,127.006 169.000 C 125.676 161.047,125.173 157.745,124.832 154.730 C 124.641 153.042,124.384 151.498,124.262 151.301 C 124.140 151.103,123.851 149.604,123.621 147.970 C 123.391 146.337,122.918 143.200,122.571 141.000 C 122.223 138.800,121.781 135.920,121.589 134.600 C 121.058 130.969,120.399 126.832,119.995 124.600 C 119.796 123.500,119.427 121.172,119.175 119.426 C 118.924 117.680,118.627 116.015,118.516 115.726 C 118.405 115.437,118.514 115.200,118.757 115.200 C 119.001 115.200,119.200 115.367,119.200 115.571 M172.296 121.100 C 173.322 122.373,174.725 124.325,176.248 126.600 C 176.837 127.480,177.473 128.260,177.660 128.333 C 177.847 128.407,178.000 128.632,178.000 128.833 C 178.000 129.035,178.315 129.547,178.700 129.971 C 180.016 131.421,180.400 131.966,180.400 132.383 C 180.400 132.612,180.547 132.800,180.726 132.800 C 180.906 132.800,181.457 133.520,181.952 134.400 C 182.447 135.280,183.020 136.000,183.226 136.000 C 183.432 136.000,183.600 136.270,183.600 136.600 C 183.600 136.930,183.747 137.200,183.926 137.200 C 184.106 137.200,184.638 137.875,185.109 138.700 C 185.581 139.525,186.424 140.723,186.983 141.362 C 187.542 142.001,188.000 142.642,188.000 142.787 C 188.000 142.931,188.315 143.398,188.700 143.825 C 189.085 144.251,190.030 145.540,190.800 146.690 L 192.200 148.779 198.947 148.790 L 205.695 148.800 206.835 147.500 C 207.462 146.785,208.291 145.615,208.678 144.900 C 209.065 144.185,209.521 143.600,209.691 143.600 C 209.861 143.600,210.000 143.330,210.000 143.000 C 210.000 142.670,210.175 142.400,210.390 142.400 C 210.604 142.400,211.036 141.905,211.349 141.300 C 211.662 140.695,212.474 139.570,213.153 138.800 C 213.832 138.030,214.393 137.220,214.400 137.000 C 214.407 136.780,214.968 135.970,215.647 135.200 C 216.326 134.430,217.138 133.305,217.451 132.700 C 217.764 132.095,218.196 131.600,218.410 131.600 C 218.625 131.600,218.800 131.330,218.800 131.000 C 218.800 130.670,218.968 130.400,219.173 130.400 C 219.378 130.400,219.647 130.085,219.771 129.700 C 219.894 129.315,220.462 128.460,221.032 127.800 C 221.603 127.140,222.363 126.105,222.721 125.500 C 223.079 124.895,223.514 124.400,223.686 124.400 C 223.859 124.400,224.000 124.130,224.000 123.800 C 224.000 123.470,224.135 123.195,224.300 123.189 C 224.465 123.183,225.041 122.463,225.580 121.589 C 227.432 118.588,227.531 119.375,226.215 126.600 C 225.855 128.580,225.388 131.280,225.178 132.600 C 224.967 133.920,224.689 135.270,224.559 135.600 C 224.328 136.183,224.111 137.468,223.090 144.269 C 222.821 146.067,222.465 147.672,222.300 147.836 C 222.135 147.999,221.996 148.778,221.990 149.567 C 221.985 150.355,221.797 151.720,221.572 152.600 C 221.347 153.480,221.007 155.190,220.817 156.400 C 220.627 157.610,220.186 160.175,219.836 162.100 C 219.486 164.025,218.914 167.175,218.564 169.100 C 218.214 171.025,217.772 173.590,217.581 174.800 C 217.390 176.010,216.791 179.473,216.250 182.496 L 215.265 187.991 209.933 193.156 C 201.056 201.752,199.499 203.200,199.134 203.200 C 198.941 203.200,196.991 201.445,194.799 199.300 C 192.608 197.155,189.217 193.960,187.263 192.200 C 183.570 188.874,182.400 187.085,182.400 184.763 C 182.400 184.010,182.216 182.766,181.992 181.997 C 181.767 181.229,181.407 179.520,181.192 178.200 C 180.976 176.880,180.524 174.270,180.186 172.400 C 179.848 170.530,179.421 168.010,179.237 166.800 C 179.053 165.590,178.692 163.520,178.433 162.200 C 178.175 160.880,177.800 158.900,177.600 157.800 C 177.400 156.700,177.025 154.720,176.767 153.400 C 176.508 152.080,176.163 150.010,176.000 148.800 C 175.837 147.590,175.492 145.520,175.233 144.200 C 174.975 142.880,174.600 140.900,174.400 139.800 C 174.200 138.700,173.824 136.720,173.564 135.400 C 173.305 134.080,172.979 131.920,172.840 130.600 C 172.701 129.280,172.470 128.017,172.328 127.794 C 172.185 127.570,171.879 126.026,171.648 124.362 C 171.416 122.697,171.112 121.035,170.971 120.668 C 170.575 119.637,171.310 119.877,172.296 121.100 M193.311 162.889 C 193.418 163.830,193.809 165.680,194.181 167.000 C 194.552 168.320,194.956 169.940,195.078 170.600 C 195.201 171.260,195.438 171.980,195.605 172.200 C 195.773 172.420,196.041 173.410,196.201 174.400 C 196.361 175.390,196.606 176.380,196.745 176.600 C 196.974 176.964,197.561 179.253,198.314 182.717 C 198.730 184.633,199.224 184.470,199.890 182.200 C 200.213 181.100,200.730 179.356,201.039 178.325 C 201.347 177.294,201.600 176.089,201.600 175.648 C 201.600 175.208,201.759 174.749,201.954 174.629 C 202.148 174.508,202.435 173.553,202.591 172.505 C 202.747 171.457,203.013 170.420,203.183 170.200 C 203.352 169.980,203.613 168.999,203.763 168.020 C 203.913 167.041,204.186 166.051,204.370 165.820 C 204.554 165.589,204.788 164.770,204.889 164.000 C 204.989 163.230,205.146 162.330,205.236 162.000 C 205.376 161.489,204.489 161.384,199.259 161.289 L 193.118 161.179 193.311 162.889 M146.000 193.133 C 146.000 193.316,148.987 196.331,152.638 199.833 C 156.289 203.335,162.747 209.620,166.990 213.800 C 176.332 223.003,182.794 229.000,183.372 229.000 C 183.912 229.000,191.993 212.882,191.995 211.800 C 191.997 211.216,191.484 210.800,190.099 210.258 C 187.227 209.135,185.467 208.397,184.787 208.031 C 184.450 207.850,183.597 207.575,182.891 207.420 C 182.186 207.265,181.506 206.972,181.381 206.769 C 181.255 206.566,180.713 206.400,180.176 206.400 C 179.639 206.400,179.200 206.263,179.200 206.096 C 179.200 205.929,178.031 205.374,176.602 204.861 C 175.173 204.348,173.902 203.765,173.778 203.565 C 173.654 203.364,173.218 203.200,172.809 203.200 C 172.400 203.200,171.555 202.947,170.932 202.637 C 170.310 202.327,169.350 201.899,168.800 201.685 C 168.250 201.471,166.990 200.983,166.000 200.600 C 165.010 200.217,163.840 199.758,163.400 199.579 C 162.960 199.400,161.880 198.961,161.000 198.603 C 160.120 198.244,158.890 197.692,158.268 197.376 C 157.645 197.059,156.885 196.800,156.579 196.800 C 156.272 196.800,155.072 196.375,153.911 195.856 C 147.269 192.884,146.000 192.447,146.000 193.133 M250.800 193.197 C 250.470 193.389,248.760 194.108,247.000 194.794 C 245.240 195.481,243.440 196.191,243.000 196.373 C 242.560 196.555,241.390 197.020,240.400 197.406 C 239.410 197.792,237.650 198.533,236.489 199.054 C 235.328 199.574,234.245 200.000,234.081 200.000 C 233.831 200.000,232.097 200.680,227.000 202.775 C 226.560 202.956,225.390 203.420,224.400 203.806 C 223.410 204.192,221.650 204.933,220.489 205.454 C 219.328 205.974,218.245 206.400,218.081 206.400 C 217.831 206.400,216.097 207.080,211.000 209.175 C 210.560 209.356,209.390 209.829,208.400 210.226 C 205.735 211.294,205.740 211.269,207.540 214.971 C 208.453 216.848,209.200 218.552,209.200 218.758 C 209.200 218.965,209.335 219.193,209.500 219.267 C 209.665 219.340,210.115 220.075,210.500 220.900 C 210.885 221.725,211.515 223.075,211.900 223.900 C 212.285 224.725,212.690 225.490,212.800 225.600 C 212.911 225.710,213.422 226.663,213.938 227.718 C 215.047 229.990,214.345 230.377,221.040 223.800 C 223.727 221.160,229.121 215.940,233.026 212.200 C 236.930 208.460,241.696 203.870,243.617 202.000 C 245.537 200.130,247.984 197.762,249.054 196.737 C 252.881 193.072,253.634 191.546,250.800 193.197 M267.273 199.380 C 266.915 201.116,266.005 207.345,265.430 212.000 C 265.335 212.770,264.972 215.380,264.624 217.800 C 264.276 220.220,263.813 223.793,263.595 225.740 C 263.377 227.686,263.077 229.476,262.928 229.716 C 262.779 229.957,262.522 231.604,262.357 233.377 C 262.191 235.150,261.859 237.950,261.619 239.600 C 261.378 241.250,261.013 243.770,260.806 245.200 C 260.600 246.630,260.229 249.060,259.983 250.600 C 259.737 252.140,259.438 254.340,259.319 255.488 C 259.110 257.511,259.046 257.602,257.251 258.442 C 256.233 258.918,253.579 260.183,251.352 261.254 C 249.126 262.324,247.101 263.200,246.852 263.200 C 246.604 263.200,246.400 263.380,246.400 263.600 C 246.400 263.820,246.055 264.000,245.632 264.000 C 244.810 264.000,242.288 265.203,242.067 265.700 C 241.993 265.865,241.758 266.000,241.545 266.000 C 241.141 266.000,239.439 266.736,234.500 269.044 C 232.905 269.790,230.205 271.052,228.500 271.848 C 226.795 272.645,224.121 273.905,222.558 274.648 C 220.995 275.392,219.510 276.000,219.258 276.000 C 219.006 276.000,218.800 276.180,218.800 276.400 C 218.800 276.620,218.455 276.800,218.032 276.800 C 217.281 276.800,214.800 277.938,214.396 278.468 C 214.284 278.616,213.697 278.861,213.092 279.013 C 212.487 279.164,211.894 279.449,211.773 279.644 C 211.652 279.840,211.203 280.000,210.776 280.000 C 210.349 280.000,210.000 280.160,210.000 280.357 C 210.000 280.553,209.567 280.822,209.037 280.955 C 208.508 281.088,207.801 281.302,207.466 281.430 C 207.008 281.606,206.912 281.458,207.076 280.832 C 207.195 280.374,207.452 280.000,207.647 280.000 C 207.841 280.000,208.000 279.730,208.000 279.400 C 208.000 279.070,208.135 278.795,208.300 278.789 C 208.465 278.783,209.041 278.063,209.580 277.189 C 210.120 276.315,210.705 275.600,210.880 275.600 C 211.056 275.600,211.200 275.412,211.200 275.183 C 211.200 274.954,211.382 274.549,211.604 274.283 C 212.940 272.686,217.600 265.940,217.600 265.604 C 217.600 265.382,217.765 265.200,217.967 265.200 C 218.169 265.200,218.747 264.525,219.250 263.700 C 219.754 262.875,220.309 262.140,220.483 262.067 C 220.657 261.993,220.800 261.678,220.800 261.367 C 220.800 261.055,220.938 260.800,221.106 260.800 C 221.274 260.800,221.856 260.080,222.400 259.200 C 222.944 258.320,223.526 257.600,223.694 257.600 C 223.862 257.600,224.000 257.412,224.000 257.183 C 224.000 256.954,224.182 256.549,224.405 256.283 C 224.629 256.017,226.606 253.280,228.800 250.200 C 230.994 247.120,232.971 244.383,233.195 244.117 C 233.418 243.851,233.600 243.529,233.600 243.400 C 233.600 243.271,233.786 242.949,234.014 242.683 C 235.156 241.351,241.200 232.714,241.200 232.413 C 241.200 232.223,241.335 232.007,241.500 231.933 C 241.980 231.720,244.400 228.486,244.400 228.057 C 244.400 227.842,244.535 227.607,244.700 227.533 C 244.865 227.460,245.477 226.680,246.061 225.800 C 246.644 224.920,247.408 223.840,247.759 223.400 C 248.598 222.346,253.288 215.746,253.800 214.897 C 254.020 214.532,254.441 213.972,254.735 213.653 C 255.030 213.334,255.732 212.336,256.295 211.436 C 256.859 210.536,257.450 209.710,257.609 209.600 C 257.769 209.490,258.237 208.849,258.650 208.176 C 259.062 207.503,261.199 204.453,263.399 201.398 C 267.593 195.572,268.114 195.301,267.273 199.380 M132.800 198.683 C 133.020 198.949,133.200 199.354,133.200 199.583 C 133.200 199.812,133.368 200.000,133.574 200.000 C 133.780 200.000,134.353 200.720,134.848 201.600 C 135.343 202.480,135.894 203.200,136.074 203.200 C 136.253 203.200,136.400 203.379,136.400 203.597 C 136.400 203.815,138.380 206.704,140.800 210.018 C 143.220 213.331,145.200 216.213,145.200 216.421 C 145.200 216.630,145.345 216.800,145.522 216.800 C 145.699 216.800,146.464 217.788,147.222 218.995 C 147.980 220.202,148.735 221.192,148.900 221.195 C 149.065 221.198,149.200 221.375,149.200 221.588 C 149.200 221.907,154.994 230.193,156.398 231.883 C 156.619 232.149,156.800 232.554,156.800 232.783 C 156.800 233.012,156.935 233.205,157.100 233.211 C 157.265 233.217,157.841 233.937,158.380 234.811 C 158.920 235.685,159.505 236.400,159.680 236.400 C 159.856 236.400,160.000 236.575,160.000 236.788 C 160.000 237.335,162.485 240.800,162.877 240.800 C 163.055 240.800,163.200 240.988,163.200 241.217 C 163.200 241.446,163.920 242.609,164.800 243.800 C 165.680 244.991,166.400 246.154,166.400 246.383 C 166.400 246.612,166.565 246.800,166.767 246.800 C 166.969 246.800,167.547 247.475,168.050 248.300 C 168.554 249.125,169.109 249.860,169.283 249.933 C 169.457 250.007,169.600 250.322,169.600 250.633 C 169.600 250.945,169.735 251.205,169.900 251.211 C 170.065 251.217,170.641 251.937,171.180 252.811 C 171.720 253.685,172.305 254.400,172.480 254.400 C 172.656 254.400,172.800 254.655,172.800 254.967 C 172.800 255.278,172.943 255.593,173.117 255.667 C 173.291 255.740,173.846 256.475,174.350 257.300 C 174.853 258.125,175.431 258.800,175.633 258.800 C 175.835 258.800,176.000 258.984,176.000 259.209 C 176.000 259.434,177.440 261.590,179.200 264.000 C 180.960 266.410,182.400 268.566,182.400 268.791 C 182.400 269.016,182.544 269.200,182.720 269.200 C 182.895 269.200,183.480 269.915,184.020 270.789 C 184.559 271.663,185.135 272.383,185.300 272.389 C 185.465 272.395,185.600 272.670,185.600 273.000 C 185.600 273.330,185.747 273.600,185.926 273.600 C 186.106 273.600,186.657 274.320,187.152 275.200 C 187.647 276.080,188.220 276.800,188.426 276.800 C 188.632 276.800,188.800 277.070,188.800 277.400 C 188.800 277.730,188.968 278.000,189.173 278.000 C 189.378 278.000,189.672 278.397,189.826 278.881 C 189.980 279.366,190.352 280.009,190.653 280.310 C 191.223 280.881,191.386 281.600,190.944 281.600 C 190.652 281.600,190.016 281.308,177.108 275.241 C 175.187 274.339,173.533 273.600,173.431 273.600 C 173.215 273.600,169.022 271.652,157.168 266.045 C 155.721 265.360,154.326 264.800,154.068 264.800 C 153.811 264.800,153.600 264.620,153.600 264.400 C 153.600 264.180,153.394 264.000,153.142 264.000 C 152.890 264.000,151.405 263.390,149.842 262.644 C 148.279 261.898,145.740 260.717,144.200 260.020 C 138.281 257.341,138.885 258.501,137.629 247.400 C 137.213 243.719,136.451 238.299,136.000 235.800 C 135.476 232.901,134.739 227.458,134.401 224.000 C 134.240 222.350,133.994 220.730,133.854 220.400 C 133.715 220.070,133.428 218.270,133.217 216.400 C 133.006 214.530,132.541 211.020,132.184 208.600 C 131.826 206.180,131.403 202.844,131.244 201.187 C 131.085 199.530,130.820 197.955,130.654 197.687 C 130.019 196.660,130.918 196.258,131.664 197.235 C 132.068 197.766,132.580 198.417,132.800 198.683 " stroke="none" fill="#040404" fill-rule="evenodd"></path></g><script>
    alert('XSS by Termireum');
  </script></svg>
